<svg xmlns="http://www.w3.org/2000/svg" viewBox="0 0 855.68 752.21"><defs><style>.cls-1{fill:#624d49;}.cls-2{fill:#695551;}.cls-3{fill:#483936;}.cls-4{fill:#53403c;}.cls-5{fill:#6c5855;}.cls-6{fill:#5c4b4a;}.cls-7{fill:#b27735;}.cls-8{fill:#85706f;}.cls-17,.cls-9{fill:none;}.cls-10{fill:#a56e35;}.cls-11{fill:#f8e3bb;}.cls-12{fill:#ead5b2;}.cls-13{fill:#eebd65;}.cls-14{fill:#010201;}.cls-15{fill:#fff;}.cls-16{fill:#614c46;}.cls-17{stroke:#614c46;stroke-miterlimit:10;stroke-width:2.71px;}.cls-18{fill:#e5e5e5;}.cls-19{fill:#d1d2d2;}.cls-20{fill:#4d3d3c;}.cls-21{fill:#f4cfe3;}</style></defs><title>Effio</title><g id="Capa_2" data-name="Capa 2"><g id="Layer_1" data-name="Layer 1"><path class="cls-1" d="M595,582.78s-49.89,121.25-194.39-82S151.86,229.85,65.88,308s-104.16,226.64,45.63,329.5,326.86,79.42,326.86,79.42l115.91-57.27Z"/><path class="cls-2" d="M508.19,682.41c5-20.36-2-46.08-22.19-54.69-19.57-8.34-25.66-14.31-40.35-31.5C435.41,584.16,429.08,575,417.36,559c-23.24-31.56-42.44-65.71-64.11-98.33-42.68-64.25-99-129.78-180.48-138.66-40.72-4.42-77,14.49-101.14,46.43C48.9,398.58,41,441.24,39,478.05a302.92,302.92,0,0,0,14,108C-30.88,489.68-6.55,373.84,65.88,308c86-78.13,190.2-10.52,334.73,192.77,122.4,172.19,176.91,111.53,190.7,89l-37,69.92Z"/><path class="cls-3" d="M333.41,672.71l17.75-8c-77.09-19.05-233.79-71-278-161.25-20.2-41.25-23.36-87.32-.53-138.75l-2.21-4.31c-25,56.14-25.56,108.41-3.06,154.33,47.21,96.37,186.11,138.21,266.05,158"/><path class="cls-3" d="M305,608.06l16.12-7.44C222.07,570,94.06,493.25,133,341.75l-2.64-5.82C85.94,508.74,221.3,580.88,305,608.06"/><path class="cls-3" d="M300.22,541.75l17.89-4.22C250.46,523.79,170.73,447.3,178.4,347.58l-2.65-4.8c-9.51,127.89,63.52,174.08,124.47,199"/><path class="cls-3" d="M36.06,503.48,51.37,519.6C42.53,489.19,49.07,434.34,65,415.9,108,366,224.17,374,225.31,374.24v-6.32c-1.2-.2-126-9.79-175.29,47.29-19.66,22.77-24.36,52.5-14,88.27"/><path class="cls-3" d="M74.24,563l21.11,11.18c-13.82-22.5-23.24-70.58-14.82-86.78,27.11-51.94,156.12-60.1,157.41-60.19l-1-7.44c-5.72.35-139.82,8.83-171.32,69.22-11.25,21.51-8.36,46.43,8.58,74"/><path class="cls-3" d="M123.92,610.22,139,602.78c-9.89-20.06-10.62-47.09-2.28-61.28,26.12-44.4,129.74-50.08,130.79-50.14l-.86-6.35c-4.59.2-113.74,6.24-144.38,58.36C111,562.52,111.54,585,123.92,610.22"/><path class="cls-3" d="M240.63,659.78l26.87,10.09c-50.91-31.82-59-74-55.51-91.4,6.59-32.89,68.81-55.7,92.24-61.75l-2.1-6.2c-3.86,1-94.47,24.79-104.47,74.7-4.89,24.19,9.58,49.27,43,74.56"/><path class="cls-4" d="M326.68,669.35l17.79-8c-77.13-19-233.8-71-278-161.25-20.23-41.29-18.88-88.27,3.94-139.7l-6.09-2.93c-24.94,56.18-26.2,108-3.68,153.92,47.18,96.34,186.09,138.21,266,157.94"/><path class="cls-4" d="M298.26,604.71l16.16-7.42c-99-30.68-222.26-109.41-183.28-260.94l-6-3C80.72,506.13,214.56,577.52,298.26,604.71"/><path class="cls-4" d="M293.49,538.44l17.92-4.31c-67.65-13.7-143.34-91.62-135.66-191.35l-6.3-5.35c-9.5,127.85,63.11,176.08,124,201"/><path class="cls-4" d="M29.36,500.12,44.65,516.2c-8.85-30.36-2.3-85.2,13.65-103.68,43-49.88,159.18-41.81,160.29-41.68v-6.28c-1.2-.18-126-9.79-175.27,47.27-19.69,22.81-24.36,52.49-13.95,88.3"/><path class="cls-4" d="M67.52,559.62,88.62,570.8c-13.84-22.51-23.23-70.57-14.78-86.74,27.09-52,156.1-60.17,157.39-60.23l-1-7.44c-5.69.35-139.8,8.85-171.3,69.19-11.24,21.55-8.36,46.46,8.56,74"/><path class="cls-4" d="M117.23,606.82l15.05-7.38c-9.89-20.09-10.63-47.12-2.28-61.31C156.11,493.73,259.74,488,260.77,488l-.84-6.37c-4.62.23-113.75,6.27-144.41,58.36-11.28,19.18-10.72,41.68,1.7,66.85"/><path class="cls-4" d="M233.92,656.42l26.85,10.12c-50.92-31.82-59-74.08-55.5-91.44,6.61-32.87,68.8-55.73,92.21-61.74l-2.09-6.22c-3.82,1-94.44,24.8-104.44,74.71-4.88,24.19,9.57,49.31,43,74.56"/><path class="cls-3" d="M31.14,349a164.06,164.06,0,0,0-8.85,58.76C24.42,477,53.12,540.23,108,583.64,164.77,628.56,235.56,657,304.9,676a1138.31,1138.31,0,0,0,128.18,27.65c8.28,1.23,16.67,2.51,25.06,3.53l-19.77,9.77s-177.11,23.44-326.86-79.42C-15,550.59-21.64,431.15,31.14,349"/><path class="cls-5" d="M390.14,712.22c0,30,204.86,30,204.86,0S549.13,658,492.57,658s-102.43,24.29-102.43,54.25"/><path class="cls-5" d="M610.9,717.9c0,30,204.87,30,204.87,0s-45.89-54.24-102.43-54.24S610.9,687.94,610.9,717.9"/><path class="cls-6" d="M713.34,663.66a187.28,187.28,0,0,1,29.17,2.27,167.57,167.57,0,0,0-32.21,12.92c-18.06,9.49-46.45,31.93-29.7,55.67a54.62,54.62,0,0,0,4.06,5.07c-40-2.29-73.76-9.5-73.76-21.7,0-30,45.86-54.24,102.44-54.24"/><path class="cls-7" d="M392.78,551.25C360,529,374.36,475,411,422.31s56.6-103.18,114.6-61.76c49.55,35.37,18.43,76.19-18.26,128.89s-77.26,87.29-114.58,61.82"/><path class="cls-5" d="M392.11,552.47c-21.45-14.66-23.37-42.38-12.27-74.62,38.24,10.32,101.81,48.91,86.83,61.78-25,21.49-50.41,29.31-74.56,12.84"/><path class="cls-7" d="M837.38,553.24c32.73-22.33,18.44-76.29-18.24-128.95S762.53,321,704.54,362.48c-49.57,35.38-18.46,76.23,18.22,128.9s77.29,87.31,114.61,61.86"/><path class="cls-5" d="M837.38,553.24c20.72-14.14,22.6-41,11.86-72.12-37,10-98.38,47.23-83.91,59.74,24.11,20.75,48.72,28.28,72,12.38"/><path class="cls-6" d="M542.42,709.95c-12.09-22.38-31.82-39.56-54.23-51.92,1.46,0,2.9-.08,4.38-.08C549.13,658,595,682.26,595,712.2c0,9.07-18.77,15.39-44.86,19a79,79,0,0,0-7.72-21.23"/><path class="cls-8" d="M398.33,721.7c5.08-16.78,15.5-21,31-22.49-27.77,12.24-19.33,26.95-19.31,27s-6.54-2.22-11.66-4.49"/><path class="cls-8" d="M424.23,729.29c3.94-13.1,12-16.32,24.08-17.53C426.72,721.3,433.2,730.14,434,731a63.34,63.34,0,0,1-9.76-1.74"/><path class="cls-7" d="M425,484.17c0,122.74,83.64,222.3,186.85,222.3s186.87-99.56,186.87-222.3S715.09,261.86,611.89,261.86,425,361.4,425,484.17"/><path class="cls-9" d="M425,484.17c0,122.74,83.64,222.3,186.83,222.3s186.89-99.56,186.89-222.3S715.09,261.86,611.87,261.86,425,361.4,425,484.17"/><path class="cls-10" d="M766.09,575.51c16.12-35.75,28-73.3,31.49-112.49.75,8,1.16,16.23,1.16,24.53,0,86.2-41.29,160.94-101.63,197.77,25.93-34.14,51-70.08,69-109.82"/><path class="cls-10" d="M434.14,415.7a211.82,211.82,0,0,0,.94,33.1c5.43,48.5,19.86,92,38.71,134.76a537.78,537.78,0,0,0,27.48,79.76c-46.21-40.45-76.21-105.61-76.21-179.15a260.08,260.08,0,0,1,9.08-68.47"/><path class="cls-5" d="M390.14,712.22c0,30,204.86,30,204.86,0S549.13,658,492.57,658s-102.43,24.29-102.43,54.25"/><path class="cls-7" d="M392.78,551.25C360,529,374.36,475,411,422.31s56.6-103.18,114.6-61.76c49.55,35.37,18.43,76.19-18.26,128.89s-77.26,87.29-114.58,61.82"/><path class="cls-10" d="M434.14,415.7a211.82,211.82,0,0,0,.94,33.1c5.43,48.5,19.86,92,38.71,134.76a537.78,537.78,0,0,0,27.48,79.76c-46.21-40.45-76.21-105.61-76.21-179.15a260.08,260.08,0,0,1,9.08-68.47"/><path class="cls-11" d="M486.15,593.26c0,87.78,56.29,158.95,125.74,158.95S737.65,681,737.65,593.26,681.33,434.34,611.89,434.34,486.15,505.52,486.15,593.26"/><path class="cls-12" d="M699.89,604.53c-6.81-63.35-30.16-125.2-73-169,62.38,9.37,110.77,76.41,110.77,157.74,0,52.1-19.83,98.33-50.44,127.31,12.71-37.12,16.68-79,12.69-116"/><path class="cls-10" d="M779.24,107.48,725.83,45.42s60.55-54.6,76.32-10.64c19.56,54.51-22.91,72.69-22.91,72.69"/><path class="cls-13" d="M771.89,86.43,745.33,55.54s30.12-27.09,37.93-5.26c9.75,27.14-11.38,36.16-11.38,36.16"/><rect class="cls-9" x="393.54" y="264.47" width="374.28" height="148.84"/><rect class="cls-9" x="396.52" y="265.26" width="368.19" height="145.22"/><path class="cls-10" d="M410.38,281.38c20.35,21.54,44.43,41,70.57,55.05,51.37,27.64,110.89,39,169,37.21,56.26-1.73,64.08,3.21,114.77-19.34-21,22.87-64.92,47.49-152.41,54.62-119.62,9.74-162.8-29.57-152.15-52.63,2.46-5.24-64.87-85.39-63.58-91a201.86,201.86,0,0,0,13.83,16.12"/><path class="cls-7" d="M432.56,192.59A146.27,146.27,0,0,1,429.4,163C429.14,73.32,510.31.34,610.73,0S792.7,72.24,793,162a143.51,143.51,0,0,1-3,30c24.21,20.47,38.47,45.26,38.54,72,.22,70.24-96.9,127.49-216.88,127.84S394.12,335.51,393.9,265.26c-.06-27,14.24-52,38.66-72.67"/><path class="cls-10" d="M727.69,277.79c-2.49-5.07-5.73-9.82-8.35-14.81.12-1.79.19-2.9.19-3.42,3-15.83,6.51-31.61,6.53-47.86.07-35.46-3.18-72-12.94-106.32-8.37-29.45-22.64-66.77-43.79-96.85C741,30.11,792.78,90.57,793,162a145.72,145.72,0,0,1-3.07,30c24.21,20.47,38.47,45.26,38.54,72,.14,46.15-41.72,86.7-104.45,109.16,14.6-29.88,19-63.76,3.66-95.33"/><path class="cls-14" d="M664.93,199.9c0,24.39,9.73,44.19,21.75,44.19s21.75-19.8,21.75-44.19-9.74-44.17-21.75-44.17-21.75,19.79-21.75,44.17"/><path class="cls-15" d="M687.1,189.29c0,7.13,2.84,12.81,6.35,12.81s6.32-5.69,6.32-12.81-2.84-12.84-6.32-12.84-6.35,5.74-6.35,12.84"/><path class="cls-14" d="M521.4,199.9c0,24.39,9.77,44.19,21.75,44.19s21.78-19.8,21.78-44.19-9.74-44.17-21.78-44.17S521.4,175.52,521.4,199.9"/><path class="cls-15" d="M543.64,189.29c0,7.13,2.82,12.81,6.3,12.81s6.33-5.69,6.33-12.81-2.85-12.84-6.33-12.84-6.3,5.74-6.3,12.84"/><path class="cls-16" d="M655.21,274.08c0-21.09-86.88-21.85-86.9-.09s35.48,43.51,43.41,43.51,43.47-22.3,43.49-43.42"/><line class="cls-17" x1="611.74" y1="312.55" x2="611.74" y2="354.1"/><path class="cls-16" d="M754.51,131.13c-.08-.37-10.55-48.92-57.38-47.65l.3,12.66c41.3-1.15,53.64,35.52,53.75,35.86Z"/><path class="cls-16" d="M488.22,96.16c.17-.37,18.23-46.62,64.27-37.89l-1.93,10.29c-40.59-7.71-59,28.67-59.18,29Z"/><path class="cls-7" d="M448.47,89.32,513.76,40S466.1-26.15,441.41,13.44c-30.63,49.2,7.05,75.88,7.05,75.88"/><path class="cls-10" d="M442.74,27.27c-3.82,18.51-3.33,38.65.29,57.11-9.17-9.85-24.57-34.11-1.61-70.94,3.59-5.71,7.67-9.25,12-11a68.65,68.65,0,0,0-10.72,24.85"/><path class="cls-13" d="M460.09,70.33l32.48-24.55s-23.71-32.88-36-13.2c-15.22,24.44,3.51,37.75,3.51,37.75"/><polygon class="cls-15" points="591.34 398.9 583.18 355.41 611.37 356.95 611.74 396.99 591.34 398.9"/><path class="cls-18" d="M593.15,356c-4.26,11.35-2.14,25,2,36.27a65.57,65.57,0,0,0,2.58,6.05l-6.38.62-8.16-43.49Z"/><polygon class="cls-15" points="632.19 398.9 640.34 355.41 611.37 356.95 611.74 396.99 632.19 398.9"/><path class="cls-18" d="M613.28,356.86c-.29,2.13,3.2,3.65,3.2,5.83-1.9,10.66-4.4,22.56,3.19,31a21.83,21.83,0,0,0,6,4.56l-14-1.26-.38-40Z"/><path class="cls-19" d="M796.53,276.17l.8-.72c-28.6-30.77-99.77-3-102.77-1.79l2.46,6.22c.69-.26,74.07-31.13,99.52-3.72"/><path class="cls-19" d="M795.81,302.12l1.35-.92c-24.4-34.22-98.6-15.78-101.75-15l1.69,6.51c.72-.14,77-21,98.7,9.42"/><path class="cls-19" d="M412,276.17l-.79-.72c28.58-30.77,99.79-3,102.77-1.79l-2.45,6.22c-.7-.26-74.08-31.13-99.53-3.72"/><path class="cls-19" d="M412.79,302.12l-1.36-.92c24.42-34.22,98.59-15.78,101.71-15l-1.65,6.51c-.72-.14-77-21-98.71,9.42"/><path class="cls-16" d="M626.19,364.87c16.24.51,29.26-18.28,29.26-18.28-13,8.94-33.68,10.35-39.62,2.18l-8.34,6.07c3.69,5.06,9.63,10,18.7,10"/><path class="cls-16" d="M597.81,364.87c-16.27.51-29.28-18.25-29.28-18.25,13,8.91,33.68,10.32,39.66,2.15l8.3,6.07c-3.69,5.09-9.63,10-18.67,10"/><path class="cls-20" d="M633.35,260a43.18,43.18,0,0,0-10.23,1.19,72,72,0,0,0-7.66-.09c-11.12.31-22.08,5.95-25.25,17.52-3.21,11.87-1.68,21.67,2.83,29.85C581.1,300.08,568.31,287,568.31,274c0-14.68,39.33-19.11,65-14"/><path class="cls-21" d="M726.67,238.22c-.12,6,13.1,11.06,29.54,11.31s29.84-4.37,29.92-10.37S773,228.1,756.58,227.88s-29.86,4.37-29.91,10.34"/><path class="cls-21" d="M436.27,238.15c-.13,6,13.15,11,29.54,11.3s29.82-4.36,29.92-10.32S482.59,228,466.18,227.79s-29.81,4.37-29.91,10.36"/><path class="cls-8" d="M807.58,727.41c-5.12-16.77-15.5-20.94-31-22.46,27.73,12.24,19.33,26.91,19.28,26.95s6.54-2.21,11.69-4.49"/><path class="cls-8" d="M781.65,735c-4-13.09-12-16.32-24.09-17.53,21.6,9.54,15.15,18.44,14.34,19.27a64.6,64.6,0,0,0,9.75-1.74"/></g></g></svg>