<svg xmlns="http://www.w3.org/2000/svg" viewBox="0 0 488.49 400.01"><defs><style>.cls-1{fill:#010101;}.cls-2{fill:#b1e0e7;}.cls-3{fill:#a4dbdf;}.cls-4{fill:#f4ee6c;}.cls-5{fill:#eae357;}.cls-6{fill:#614c46;}.cls-7{fill:#b8e3eb;}.cls-8{fill:#acdee5;}.cls-9{fill:#363838;}.cls-10{fill:#f4cfe3;}.cls-11{fill:#fff;}</style></defs><title>Kioka</title><g id="Capa_2" data-name="Capa 2"><g id="Layer_1" data-name="Layer 1"><path class="cls-1" d="M423.09,355.52C393.78,406,314.77,414.83,246.61,375.25S147,262.66,176.3,212.19s108.33-59.31,176.48-19.72,99.63,112.59,70.31,163.06"/><path class="cls-2" d="M259.83,253.14c.26,4,33.55,24.75,33.55,24.75s174.7-102.8,89.94-205.38S259.83,253.14,259.83,253.14"/><path class="cls-3" d="M383.32,72.5c-15-18.13-28.53-24.2-40.67-21.92.5.33,1,.66,1.43,1,19,14,36.46,29.81,32,55.53-4.23,24.53-21.18,45.77-31.4,68.05-6.5,14.18-12.17,28.7-17.51,43.34-.33,4.87-.45,9.76-.34,14.68a14,14,0,0,1-4.69,11.37,37.8,37.8,0,0,1,2.17,4.68,11.58,11.58,0,0,1,.63,2.42c.49,1,1,2,1.55,3.07,46-36.08,117.13-109.2,56.8-182.22"/><path class="cls-4" d="M426.61,275.13c-20.09-51.88-48.48-56.67-92.61-82.3-64.18-37.28-128.38-31.12-157.7,19.36-10.21,17.58-13.42,37.66-10.58,57.94,27.46-26.48,74.33-33,108.06-13.68,27,15.46,38.13,46.11,28.79,75.75-4.52,14.38-12.3,29.19-23.4,39.61a97,97,0,0,1-15.62,11.94,192.85,192.85,0,0,0,42.57,13.7c41.12,2,84-18.29,102.58-50.28,9.16-15.77,19.32-53.9,17.9-72"/><path class="cls-5" d="M354.15,375.21c-22.06,8.36-47.8,15.67-72.57,15.67a213.53,213.53,0,0,0,24.55,6.57c41.12,2,84-18.3,102.58-50.28a93.25,93.25,0,0,0,6-12.94c-17,17.85-37.22,32.16-60.51,41"/><path class="cls-1" d="M374.78,327.47c-20.38,32.25-67.33,58.84-103.83,59.48-22.08-7.88-40.74-20.22-56.88-35.5C168,307.87,147,262.66,176.3,212.19S263.21,151.71,318,183.55c37.68,21.88,66.34-.27,80.94,48.42,4.68,15.54-3.8,63.25-24.17,95.5"/><path class="cls-4" d="M327.43,295.58c-20.38,32.25-70.31,61.14-106.81,61.78-21.15-14.27-29.58-34.56-46.23-48.72-54.81-31.84-74.77-77.87-45.44-128.34s86.9-60.48,141.71-28.64c37.68,21.88,50.7,19.45,80.94,48.42,4.68,15.54-3.79,63.25-24.17,95.5"/><path class="cls-3" d="M317.33,224.75l2.66.06c.1-23.27-4-80.25,46.53-86.87-62.85,5.31-49.19,86.15-49.19,86.81"/><path class="cls-4" d="M327.43,295.58c-20.38,32.25-70.31,61.14-106.81,61.78-21.15-14.27-29.58-34.56-46.23-48.72-54.81-31.84-74.77-77.87-45.44-128.34s86.9-60.48,141.71-28.64c37.68,21.88,50.7,19.45,80.94,48.42,4.68,15.54-3.79,63.25-24.17,95.5"/><path class="cls-5" d="M184.82,319.24c.27-.15.52-.32.8-.45,18.33-8.79,37.36-16,56.15-23.71l4.35-1.83c1.58-.68,3.16-1.36,4.73-2.06,4.29-1.93,8.59-3.89,12.79-6a198.1,198.1,0,0,0,22.17-12.7c1.45-1,2.89-2,4.31-3,.82-.65,3-2.37,3.33-2.6a118.87,118.87,0,0,0,10.06-9.51c1.58-1.72,3.17-3.43,4.64-5.25l.76-.93c.22-.34.5-.77.91-1.38a109.15,109.15,0,0,0,7.54-12.66C321.87,228,331,222.41,333.18,211c1.76-9.35,8.27-13.51,9.4-22.86-17.84-12.13-44-20.29-71.92-36.47-54.81-31.84-112.4-21.84-141.71,28.64s-9.37,96.51,45.44,128.34a93.6,93.6,0,0,1,10.42,10.6"/><path class="cls-4" d="M350.85,231.94c2.39-13.82,2.67-25.51.75-31.85l-1.74-1.63a145.71,145.71,0,0,1,1,33.49"/><path class="cls-4" d="M144.27,286.46c.66-1,1.33-1.91,2-2.83.06-.2.14-.4.2-.59,3.8-12.42,15.81-20.53,28.55-18.79,2-.4,4.17-.72,6.58-1a18.61,18.61,0,0,1,10.17,1.86,24.24,24.24,0,0,1,6.93-1.08c12.92,0,21.32,8.43,24.62,19.48.73.35,1.77.78,2.36,1a61.06,61.06,0,0,0,7.84,2c.56.1,1.81.25,2.75.35l1.42.12a88.08,88.08,0,0,0,10.38.07c.52,0,1.28-.12,2-.21l.79-.17c2.4-.58,4.8-1.16,7.14-1.93.49-.16,6.6-2.58,3.77-1.22a79.9,79.9,0,0,0,9.25-4.92c1.35-.86,2.68-1.74,4-2.65.5-.47,3-2.51,3.34-2.83,1.62-1.53,3.24-3.06,4.74-4.73.44-.49,3.79-4.67,2.66-3a84.78,84.78,0,0,0,6.16-9.82c.85-1.62,1.67-3.25,2.44-4.9l.45-1.17a99.65,99.65,0,0,0,3.79-13.07c.31-1.5.6-3,.87-4.51,0-.61.37-4,.4-4.57a108.27,108.27,0,0,0-.09-14.08c0-.58-.75-5.63-.52-4.59-.16-.91-.31-1.82-.5-2.72-2.61-13.61,3.47-27.38,17.3-31.66-12.36-6.24-25.41-11-45.41-22.62-54.81-31.84-112.4-21.84-141.71,28.64C105.88,220,113.34,257,144.27,286.46"/><path class="cls-5" d="M291.19,326.79c-22.44,11-45,14.54-69.61,10.08-13-2.37-24.61-7.51-33.28-15.51-.36.26-.72.51-1.09.76,9.72,11.88,18.34,25.08,33.4,35.24,33.66-.59,78.74-25.21,101.53-54.34a99,99,0,0,1-31,23.77"/><path class="cls-5" d="M266.14,256.61a17.92,17.92,0,0,1,.77-3.11,27.36,27.36,0,0,1,7.17-11.66c-.21-12.74,4.94-26.31,10.43-37.15,4.17-8.22,9.21-15.73,16.86-21.08.46-.32.93-.6,1.39-.9a120.63,120.63,0,0,1,4.53-12.64c-10-4.61-21.26-9.49-36.63-18.42-54.81-31.84-112.4-21.84-141.71,28.64s-9.37,96.51,45.44,128.34c6.72,5.71,12.1,12.42,17.51,19.34a95.91,95.91,0,0,1,16.5-6.31C210,321.19,214,319.5,213,320c2.34-1.1,4.67-2.23,7-3.41,6.41-3.3,12.76-6.72,18.95-10.43a396.77,396.77,0,0,0,34.93-23.35c-7.25-6.52-9.75-16.41-7.69-26.2"/><path class="cls-5" d="M287.93,331c-23.49,10.89-53.67,19.95-80.51,15.27a86.52,86.52,0,0,0,13.2,11c24.95-.44,56.17-14.08,79.95-33-4.12,2.41-8.34,4.65-12.64,6.65"/><path class="cls-4" d="M315.49,146.12c23.24,62.35-18.33,135.41-92.85,163.19s-153.78-.24-177-62.59S63.95,111.32,138.47,83.53s153.77.24,177,62.58"/><path class="cls-5" d="M206.56,301.78c-44.14,4-85.07-14.34-111.51-49.71C66,213.19,60.28,162.3,81.53,118.94c-36.57,35-52.24,84-35.92,127.78,23.24,62.34,102.49,90.37,177,62.59a169.19,169.19,0,0,0,43-23.52c-19.05,8-38.12,14.07-59.07,16"/><path class="cls-6" d="M91.21,205.16c0-.2-4.64-25.4,17.92-34.05l2.36,6.1C91.6,184.83,93,204.73,93,204.9Z"/><path class="cls-1" d="M408.32,373.73c-9.88,12.17,24.45-47.22,22.54-38-3,14.33,5.2,30.21,5.2,30.21s-17.86-4.37-27.74,7.8"/><path class="cls-7" d="M312,243.37c-.81,3.93,25.8,32.75,25.8,32.75S533.44,223.26,478.88,101.9,312,243.37,312,243.37"/><path class="cls-8" d="M360.73,181.76c7.8-13.91,16.32-27.39,25.44-40.48,8.31-11.93,18-26,31.43-32.7,17.66-8.86,38.44-8,52.77,7,8.81,9.26,14.69,20.94,17.94,33.28.94-14.34-1.79-30-9.42-47C424.32-19.46,312,243.37,312,243.37c-.48,2.34,8.78,13.53,16.34,22.18,6.16-29.38,17.78-57.66,32.43-83.8"/><path class="cls-8" d="M330.18,257.33l-1.93-2.61c23.11-16.47,82.76-52.46,53.81-107.46,38.92,66.35-51.23,109.6-51.89,110.07"/><path class="cls-8" d="M383.06,211l1.19-8.19c2.29-2.37,56.42-57.63,87.62-30l-1.34.25c-27.52-24.34-86.94,37.44-87.46,38"/><path class="cls-8" d="M417.29,183.26l-3.86-3.47c.4-.45,39.66-44.94,12.87-81.89l4.2-3c29.27,40.37-12.78,87.94-13.21,88.41"/><path class="cls-8" d="M437.89,144.82l-3.45-3.88c.85-.76,21.07-18.59,35.42-17.13a13.21,13.21,0,0,1,9.62,5.37c-1.48-2-5.07-3-7.63-3.3-10.08-1-28.63,14.19-34,18.94"/><path class="cls-9" d="M39.13,64.63c22.11-1.62,51,12.76,61.51,33.62,2.62,5.18,5.27,10.23,7.71,15.12,1,.07,1.91.16,2.87.27a162,162,0,0,0-7.69-17.83c-11.7-23.17-40.21-39.9-64.9-38.08C21,59,8,69.44,2.13,87.06c-4.52,13.59-1.78,25.37,7.71,33.17C17,126.1,27.35,129,37.43,128.69c6.55-.21,2.23-6.47-4.7-7s-13.7-2.85-18.49-6.79C7,109,5.09,100.08,8.7,89.25c6.31-19,20-23.85,30.43-24.62"/><path class="cls-9" d="M264.67,26.77A54.78,54.78,0,0,0,233.36,2.23C222.52-1,205.25-2.33,184.56,9.78,144.92,33,146.81,72.88,153,97.93q.52-2.55,1.25-5c-.79-4.68-1.45-9.65-1.82-14.66-2.1-28,12.68-49,35.65-62.47,14.68-8.59,29.66-11,43.33-6.89a47.77,47.77,0,0,1,27.31,21.4c6.91,11.82,8.18,27.08-4.58,34.55-10.34,6.05-9.13,13.37,3.5,6,14.39-8.42,17.3-26.52,7.06-44"/><path class="cls-9" d="M45.7,125.89a7.57,7.57,0,1,1-7.57-7.58,7.57,7.57,0,0,1,7.57,7.58"/><path class="cls-9" d="M259.83,69.89a7.57,7.57,0,1,1-7.58-7.57,7.58,7.58,0,0,1,7.58,7.57"/><path class="cls-5" d="M338.34,278.93c4.37-6.1-17.19-40.18-28.17-35.89a19.36,19.36,0,0,0-3.09,1.56c3.88.19,31.16,30.79,31.26,34.32"/><path class="cls-3" d="M323.36,167.41l4.93-4.67c.5-2.65,11.92-65-21.32-72.9l.47,1c29.32,6.92,16,75.94,15.92,76.55"/><path class="cls-3" d="M325.74,131.37l4.16.94c.1-.48,11.35-47.82,48.77-47.34l.06-4.26c-40.88-.51-52.86,50.15-53,50.66"/><path class="cls-3" d="M341.76,99.38l4.23.48c.1-.93,2.49-22.9-5.28-31.83a10.82,10.82,0,0,0-8.15-3.91c2,.06,4.44,2,5.82,3.55,5.47,6.26,4,25.89,3.38,31.71"/><path class="cls-10" d="M151.35,284.15c1.52,2.69-3.24,8.24-10.62,12.39s-14.59,5.34-16.11,2.65,3.24-8.24,10.63-12.4,14.59-5.34,16.11-2.65"/><path class="cls-10" d="M306.92,199.89c1.51,2.69-3.25,8.24-10.63,12.39s-14.59,5.34-16.11,2.65,3.24-8.24,10.62-12.39,14.6-5.34,16.11-2.65"/><path class="cls-1" d="M179.28,224.25c8.74,16.14,9.39,32.7,1.43,37S159.24,256,150.5,239.84s-9.37-32.7-1.43-37,21.47,5.29,30.21,21.42"/><path class="cls-1" d="M133.2,220.15s13.79,6.7,21.8-9.25,6.46,16.68,6.46,16.68-12.69,8.72-28.27-7.44"/><path class="cls-1" d="M130.19,226.24S146,237,154.68,219.61,161,234.33,161,234.33s-13.81,9.49-30.77-8.09"/><path class="cls-1" d="M132.54,235.09s15.85,7.69,25.05-10.62S161.52,238,161.52,238s-11.07,15.61-29-2.95"/><path class="cls-11" d="M160.8,225.19c2.53,4.69,2.72,9.5.41,10.75s-6.24-1.53-8.77-6.22-2.73-9.5-.42-10.75,6.24,1.54,8.78,6.22"/><path class="cls-1" d="M240.76,191c8.73,16.13,9.37,32.7,1.43,37s-21.47-5.28-30.22-21.41-9.37-32.7-1.43-37S232,174.83,240.76,191"/><path class="cls-1" d="M233.72,165.71s-1.93,15.21-19.66,13.21,10.43,14.53,10.43,14.53,14.24-5.86,9.23-27.74"/><path class="cls-1" d="M240.46,166.51s.36,19.06-18.94,16.89,8.9,13.3,8.9,13.3,15.49-6.38,10-30.19"/><path class="cls-1" d="M246.59,173.33S244.37,190.79,224,188.5s9.23,10.7,9.23,10.7,19.12-.74,13.36-25.88"/><path class="cls-11" d="M222.26,191.9c2.54,4.69,2.72,9.5.42,10.75s-6.24-1.54-8.78-6.22-2.73-9.5-.41-10.75,6.23,1.54,8.77,6.22"/><path class="cls-6" d="M221.17,128.48c-.17-.11-21-15-38.43,1.77l4.52,4.72c15.35-14.77,32.79-5.1,32.94-5Z"/></g></g></svg>