<svg xmlns="http://www.w3.org/2000/svg" viewBox="0 0 735.26 949.89"><defs><style>.cls-1{fill:#50c3c2;}.cls-2{fill:#3abeb5;}.cls-3{fill:#dff1f0;}.cls-4{fill:#c7e7e9;}.cls-5{fill:#cdb5a2;}.cls-6{fill:#aadcd8;}.cls-7{fill:#4cc1b9;}.cls-8{fill:#f6f08d;}.cls-9{fill:#dad164;}.cls-10{fill:#010101;}.cls-11{fill:#fff;}.cls-12{fill:#614c46;}.cls-13{fill:#ffe9c2;}.cls-14{fill:#edd9b8;}</style></defs><title>Looja</title><g id="Capa_2" data-name="Capa 2"><g id="Layer_1" data-name="Layer 1"><path class="cls-1" d="M487.25,448.53c13.83,24.12,42.08,22.94,61,19.54,29-5.16,52.59-27.92,83.2-23.57,47.85,6.69,90.53,68.33,86.9,138.55-7.59-13.44-8.5-35.58-16.85-50.56C689.87,511.69,668,491.87,649,495.08c28.6,3.55,24.92,69.55,22.54,95.77-2.66,28.92-3.65,56.24,9.09,82.08,12.55,25.44,34.23,31.57,54.34,29.33-12.16,9.58-33.5,8.33-47.33-2-14.62-10.92-35-38.62-34.54-64,2.34,8.36,1.7,16.63.39,25.22-4.25,28.21-10,56.28-4.53,85.84,3.48,18.67,13,39.4,27.28,43.89,6.19,2,20.72,2,23.49-7.95-9.87,20.06-36.47,13.69-48.94,1.13-6.8-6.86-27.45-43.8-19.29-54.79-1.42,21.91,1.56,42.57-2.54,64.84-5.8,31.22-15.52,69.85-43.28,56,16.1.43,25.23-15.87,27.71-37.29,2.05-17.83.06-32.3-6.73-47.58-1.87-4.19-5-9.46-5-12.63.85,29.6-62.22,52.79-53.74-6.92,30.66-27.49,54.7-51.51,47.93-106.27-2.83-22.67-3.68-27.49-18.11-38.8-14.63-11.41-28.1-6.45-43.51-5.56-8.35.5-24.06,1.14-24.15-16.17"/><path class="cls-2" d="M688,700.3c-8.79-6.63-19.62-19.23-26.81-33.74a243.91,243.91,0,0,0,1.19-60.27c-6.3-59.63-33.93-133.11-81.67-138.49-20.46-2.34-38.54,3.85-58.35,8.09A78.35,78.35,0,0,1,508.5,478c-1-.17-2.06-.36-3.14-.63-.66-1.3-1.11-2.3-1.34-2.77-3.92-9.77-9.43-17.71-15.87-22.72l-.6-3.29c13.83,24.09,42.08,22.92,61,19.51,29-5.16,52.63-27.92,83.23-23.57,47.84,6.69,90.51,68.33,86.87,138.55-7.61-13.44-8.49-35.55-16.84-50.53-11.63-20.77-33.56-40.6-52.53-37.44,28.56,3.59,24.9,69.55,22.51,95.81-2.61,28.87-3.65,56.19,9.09,82,12.54,25.46,34.24,31.56,54.34,29.32-12.13,9.59-33.51,8.33-47.29-2"/><path class="cls-3" d="M213.82,407.16S198.47,478.62,377.39,453s200,21.83,222.82,102.93-12.36,120.52-11.94,181.19,40.43,131.74,19.32,156.33-83.25,29.14-84.77,8.44,34-108-24.89-174.43c.64,10.46,8.52,120.77-3.94,146C450.65,890.13,417.54,863,417.54,863s20.07-72.38,26.22-154.85c-13.87,13-125.72,53.8-162.93,46,2.74,54,16.5,124.07,7.64,152.12s-85.78,32.27-84.9,6.79c11.1-29.58,22.78-106.11-3.5-165.5-10.15-2.59-20.71-4.5-35-9.35-28.7,7.7,6.66,142.81-10,159.74s-80.49-1.65-80.49-1.65S97.72,775.5,83,738.29,49.55,632.11,47.46,612.47,22.73,546.39,72.73,353.38c63.46-305.76,141.09,53.78,141.09,53.78"/><path class="cls-4" d="M159.45,381.8c7.66,65.86,88.68,109.51,149,104.87,46.86-3.58,86-20.85,134.38-11.1,35.76,7.14,69.35,33.58,85.93,65.6,18.46,35.62,22.29,72.92,25.5,112.3,3.05,36.53,18.81,68.44,32,102.14,2.39,6.14,4.69,12.26,7.06,18.42a203,203,0,0,1-4.22-37.2c-.39-60.7,34.8-100.09,11.94-181.2S557.18,427,378.28,452.72s-163.56-45.85-163.56-45.85-68.91-319-129.93-100.34c35.84,4.89,69.36,29.48,74.66,75.27"/><path class="cls-4" d="M201.14,747.72c26,59.32,14.38,135.52,3.31,165.09-.25,7.44,6.3,12.33,15.75,14.81,16.36-56.29,12.6-139.16-13.58-181.91a43.71,43.71,0,0,1-5.47,2"/><path class="cls-4" d="M160.93,741.36a51.69,51.69,0,0,1-17.63-10.17c-2-1.87-3.92-4-6-5.74-2.16-.78-4.25-1.56-6.4-2.33v.08a4,4,0,0,1-.45-.23c-7.33-2.72-14.48-5.7-21.56-9,12.09,48.66,35.2,86.36,32.45,139a459.06,459.06,0,0,1-5.55,51.66c8.57-.6,15.94-2.61,20.17-6.89,15.49-15.84-14.08-134,5-156.37"/><path class="cls-4" d="M505.42,724.91a38,38,0,0,1-13.07-5.84c-3.55,18.36,2.24,44.64.24,61.16-2.52,20.84-7.27,40.95-12,61.32a239,239,0,0,1-11.8,36.9,78.8,78.8,0,0,0,26.11-5.27c12.46-25.24,4.59-135.57,3.95-146,58.85,66.37,23.35,153.68,24.87,174.41.27,3.29,2.17,5.91,5.11,8,9.79-30.81,18.88-63.6,17.74-95.37a265.29,265.29,0,0,0-13.22-53.28c-7.68-17.83-17.81-33.56-27.9-36"/><path class="cls-4" d="M201,747.29c.48,1.07.84,2.18,1.29,3.22,1.88-.41,3.81-.77,5.79-1.05-10.54-35-26.79-66.94-33.3-104.06a263.64,263.64,0,0,1-3.66-50.47c-1.64,8.47-3,16.91-4,25.46a237.8,237.8,0,0,0-1.34,34.93C170.2,685.83,181.06,714,187.28,744c4.79,1.17,9.31,2.21,13.68,3.3"/><path class="cls-4" d="M314.06,586.24a354.38,354.38,0,0,1-13.89,54.55c-7,20.55-16.1,41.56-22.36,62.94,2,8.59,4.13,17.22,5.78,26,1.94,10.52-.23,18.84-4.88,25a34.35,34.35,0,0,1,3.19,1.63c0-.82-.14-1.7-.16-2.53a47,47,0,0,0,6,.76c5.07-32.73,21.66-61.36,26.77-94.8,4-25.75,4.1-49.83-.45-73.6"/><path class="cls-4" d="M179.43,736c-36.12-18.67-78.28-41.75-102.13-76.12-20.74-29.91-26.93-62.38-35.53-95.72a229.92,229.92,0,0,0,3.32,30.42C65.43,658.39,94.16,727.3,158,746.31c1.78-4.47,4.37-7.41,8-8.4,12.18,4.14,21.61,6.16,30.41,8.28,0-2,.15-3.89.21-5.84A37.15,37.15,0,0,1,179.43,736"/><path class="cls-4" d="M446.31,644.39c11.22,34,30.68,60.33,47.35,91.3,1.85-.82,3.71-1.57,5.57-2.3-.18-3-.33-5.14-.41-6.19,1.39,1.54,2.68,3.12,4,4.74,1.76-.64,3.64-1.11,5.48-1.65-24.11-34.8-48.84-69.24-67.51-105.92,1.62,6.74,3.36,13.46,5.52,20"/><path class="cls-1" d="M99.92,150.36S-18.55,259.06,6,345.52c-.33-19.14,11.57-30.78,15.28-38.22C-19,425.82,5.48,454,32.82,478.59c-12.93-7.17-25.5-43.35-14.07-50.91,31.83,136.45,136.79,72.11,136.79,72.11S57.15,462,73.84,385.18c18,1.22,17.41,42.44,17.41,42.44S108.51,311,55.3,275c20.28-15,33.79,26,33.79,26s31.09-79.86-17.22-127.63,12-48.82,12-48.82Z"/><path class="cls-2" d="M37.88,224.22c-20.56,55.83-8.83,136.92,9.85,182.29,19.32,47,53.59,78.68,96.73,98.8a95,95,0,0,0,11.1-5.53S57.15,462,73.84,385.18c18,1.22,17.41,42.44,17.41,42.44S108.51,311,55.3,275c20.28-15,33.81,26,33.81,26s29.55-76.39-14.43-124.46a420.14,420.14,0,0,0-36.8,47.71"/><path class="cls-2" d="M71.52,173a1.53,1.53,0,0,1,.35.33c1,1,1.85,2.16,2.83,3.17,14.4-16.19,25.23-26.16,25.23-26.16L83.86,124.53s-17.7.33-26.22,8.2C70.76,142.1,78.22,158,71.52,173"/><path class="cls-5" d="M74.17,894.34s-32.89,30.79-11.51,33.18,82.52,3.4,96.57,2.49c13.11-.83,6.72-19.3-.28-30.65s-84.77-5-84.77-5"/><path class="cls-5" d="M613.92,884.79s15.58,41.23-4.26,42.74-76.11.28-89-1.11c-12-1.29-5.18-18.78,1.89-29.42s91.35-12.21,91.35-12.21"/><path class="cls-5" d="M416.19,863.08s-35.89,25-15,26.81,74.09,3.48,88,2.71c13-.82,6.64-18.2,10-26.08,4.35-10.24-83-3.44-83-3.44"/><path class="cls-5" d="M290.78,902s27.71,45.78,5.83,47.32-83.8-.15-98-1.79c-13.2-1.46-5.62-20.8,2.14-32.56s90-13,90-13"/><path class="cls-1" d="M279.43,199S198.06,325.8,228.73,412.18c-.34-19.11,14.72-30.81,19.48-38.28C196.68,492.61,227.57,520.65,262,545.09c-16.34-7.06-32-43.2-17.54-50.8,11.17,84.49,110.32,67.88,110.32,67.88s-48.36-36.9-27-113.84c22.75,1.11,21.85,42.35,21.85,42.35s20.58-100.31-44.79-152.47a92.4,92.4,0,0,1,34.52,29.29s-34.69-97.82-95.53-145.34,15.41-48.88,15.41-48.88Z"/><path class="cls-2" d="M259.26,173.29s-76.22,1.29-15.38,48.88a187.25,187.25,0,0,1,15.32,13.5c11-22.27,20.23-36.63,20.23-36.63Z"/><path class="cls-2" d="M293.47,443.72c-5.31-35.75-4.76-71.94-15-107.07-8.05-27.49-28.13-64.77-20.26-93.75a50.26,50.26,0,0,1,2.09-6.08c-.36-.36-.72-.78-1.08-1.17-21.82,44-50.85,119.18-30.46,176.52-.34-19.11,14.71-30.81,19.48-38.28-47.1,108.52-25.31,141.24,5.09,164.75-12.35-12.92-20.67-38.13-8.83-44.37,5.36,40.49,30.9,57.75,56.1,64.73a59.44,59.44,0,0,1-6.49-9.37c-17.65-32.41-16.67-72.78-.62-105.93"/><path class="cls-2" d="M332.57,394.37c-1.68-7.91-9-18.23-16.09-21.28a73.12,73.12,0,0,0-18-17.65,131.8,131.8,0,0,1-3.86-27c1.53-17.29,2.12-32.8,2.06-47a32.52,32.52,0,0,1-7-8.95c-.63-1.17-1.21-2.3-1.83-3.49-12.59,8.32-24.59,17.81-36.74,27.86A37.74,37.74,0,0,1,240,303.39c-3.79,4.31-7.49,8.92-11.08,13.86-19.75,27.17-32.1,60.07-52.67,86.25a83.6,83.6,0,0,1-21.88,19.28c8.11,8.21,16,16.12,23.38,22.66,9.43,30.14,37.64,51.14,69.69,49.2a66.53,66.53,0,0,0,31.06-9.89c32.85-6.72,56.58-35.88,54.55-69.3-.39-6.8.87-1.14-1.8-11,.36-1.7,2.55-4.13,1.3-10.08"/><path class="cls-4" d="M226.94,448.33c12.13,1.14,66.86-3.65,63.33-27.35-2.59-16.92-19.86-36.22-26.58-52.55-6-14.68-2.44-33-.54-48.13,2.6-20.78-2.22-38.05-10.93-56.62-10.47-22.48,3.06-39.63,21.49-45.31-23.91-75.78-76.17-66.23-76.38-68.09-.3-2.57-14.66-27.56-103.73,29.66s-31,184.59,8.8,210.85c23.91,15.76,50.49,43.56,72.76,60.68a69.25,69.25,0,0,0,10.53,18.32,43,43,0,0,1,41.25-21.45"/><path class="cls-3" d="M101.9,162.54C9.63,215,60.22,347.24,98.4,376.14s81.94,92.2,104.69,81.26,97-73.57,97-73.57-14.6-26-15.72-58.91c17.53-196.23-77.1-183.51-77.25-186.15s-13-28.67-105.26,23.77"/><path class="cls-4" d="M263.12,347.44c-31-6.21-66.09.16-86.55,27.59-12.48,16.72-18.57,36-22,56.18,9.39,10.28,18.56,20.16,27.06,28.11-.75-22.67,1.45-45.61,12.36-63.67,10.47-17.45,24.59-33.35,44.23-38.64a97.36,97.36,0,0,1,23.89-3.25,37.46,37.46,0,0,1,1-6.32"/><path class="cls-3" d="M283.1,162.6c3.61-1.47,38.66-68.83,9.75-104.87-31.49,17.9-75,57.7-68.15,103.52,7,29.54,50.4,6,57.46,1.91.63-.36.94-.57.94-.57"/><path class="cls-4" d="M227.28,167.66c8.95-38.58,40.3-67.54,75.42-88.17a51.29,51.29,0,0,0-9.86-21.76c-31.49,17.9-75,57.7-68.15,103.52a21.9,21.9,0,0,0,2.59,6.4"/><path class="cls-6" d="M281.36,157c2.14-.9,22.76-40.56,5.75-61.74-18.51,10.47-44.17,33.94-40.1,60.9,4.09,17.39,29.64,3.53,33.8,1.17a4.53,4.53,0,0,1,.55-.33"/><path class="cls-1" d="M148.1,111s88.62-68.59,147.44,29.48C269.6,131,256.22,110.08,242.65,123c28.85,2.75,84.13,78.92,38,119.18-5.84-23.94-35.77-63-110.63-59.64-10.34,11.64,18.72,17.66,18.72,17.66s-73.62,5.48-71.83-38.79c-6.23,7,10.75,32.48,10.75,32.48S34.5,185.53,51.23,144c4.56-11.22,68.84-61.26,126.29-60.24s-32.36-3.53-21.23,16.76S148.1,111,148.1,111"/><path class="cls-7" d="M299.81,142.25c-49.59-82.6-119.11-53.54-145.48-38.16a44.36,44.36,0,0,0-2-4.1c-11.79-21.52,83.4-16.67,22.52-17.75-53.28-.93-112.08,39.5-129.17,57.61,70.08-30.34,161.7-40.85,216.73,22.36,23,26.4,24.38,50,18.27,80,48-42.77-2.83-113.07-36.87-118.4,19.79,3.08,28.55,8.41,56.06,18.47"/><path class="cls-3" d="M104.68,162.69c1.55-3.89-22.29-88.58-72-93.43C22.7,107.05,20.52,170.8,61.12,200.13c28.1,16.91,41.24-32.06,43.56-37.44h0"/><path class="cls-4" d="M32.64,69.26a185,185,0,0,0-4.85,26.13,87.7,87.7,0,0,1,23.12,10.3c16.71,10.23,33.45,24.21,43.86,40.79A114,114,0,0,1,104,164.67c.27-.87.54-1.56.72-2,1.59-3.89-22.29-88.58-72-93.43"/><path class="cls-6" d="M89.14,164.85c1-2.3-14.11-48.21-43.37-51.09-5.84,22.3-7.12,59.8,16.77,77.07,16.54,10,25.13-20.26,26.43-25.26.12-.45.16-.72.16-.72"/><path class="cls-8" d="M177.08,139.38c-18.69-.12-33.79-8.77-33.73-19.3s15.3-18.94,34-18.82,33.79,8.77,33.73,19.27-15.3,18.95-34,18.85"/><path class="cls-8" d="M177.17,118.19c-17.16-.12-31-8.05-30.93-17.71s14-17.36,31.17-17.24,31,8,30.95,17.69-14,17.36-31.19,17.27"/><path class="cls-8" d="M177.24,97.48c-14.68-.09-26.53-6.88-26.47-15.17s12-14.87,26.69-14.78S204,74.4,203.94,82.69s-12,14.88-26.7,14.79"/><path class="cls-8" d="M177.31,78c-12.84-.09-23.22-6-23.16-13.29s10.5-13,23.34-13,23.27,6,23.2,13.26S190.2,78.12,177.31,78"/><path class="cls-8" d="M177.11,60.58c-10.89-.06-19.71-5.09-19.68-11.25s8.94-11,19.83-11,19.69,5.12,19.67,11.25-8.93,11-19.82,11"/><path class="cls-8" d="M177.15,46.18c-9.38-.06-16.94-4.37-16.92-9.67s7.66-9.49,17-9.43,17,4.4,16.92,9.67-7.66,9.49-17,9.43"/><path class="cls-8" d="M177.23,32.53c-7.7-.09-13.89-3.59-13.86-8s6.29-7.75,13.91-7.69,13.92,3.56,13.89,7.9-6.29,7.75-13.95,7.75"/><path class="cls-8" d="M177.26,20.47c-6.48,0-11.7-3-11.7-6.67s5.33-6.58,11.82-6.52,11.71,3,11.68,6.68-5.3,6.55-11.79,6.52"/><path class="cls-8" d="M177.31,10.78c-5.3,0-9.56-2.48-9.56-5.48s4.36-5.36,9.62-5.3,9.57,2.49,9.57,5.42-4.36,5.35-9.63,5.35"/><path class="cls-9" d="M180.22,101.37a27,27,0,0,1,10.84,3.32c9,5.18,9.58,19.93.27,25.29-12.69,7.27-29.72,4.7-42.47-.9a6.31,6.31,0,0,1-3.41-3.32,3.71,3.71,0,0,0-.72-.33c4,7.93,16.94,13.83,32.36,13.94,18.71.09,33.92-8.29,34-18.85.07-10-13.53-18.2-30.86-19.15"/><path class="cls-9" d="M177.4,83.24a53,53,0,0,0-10,.87c16-.21,39,6,32.61,23.49,0,0,.08,0,.1.06a9.45,9.45,0,0,1,3.1,2.72c3.19-2.69,5.07-6,5.1-9.46.06-9.64-13.82-17.6-30.95-17.69"/><path class="cls-9" d="M177.49,51.78c-1.26,0-2.49.09-3.71.18a25.13,25.13,0,0,1,3.92.3c7.6,1.17,15.94,5.12,16.37,13.68a10.81,10.81,0,0,1-2.36,6.94,6.79,6.79,0,0,1,2.75,1c3.86-2.3,6.23-5.42,6.24-8.86.06-7.21-10.34-13.14-23.21-13.26"/><path class="cls-9" d="M177.26,38.34A31.7,31.7,0,0,0,166.78,40c7.21-1.08,14-1.53,21,2.09,5.31,2.75,5.84,9.34,2.66,13.71a3.57,3.57,0,0,1,.36.33,1.52,1.52,0,0,0,.27.15,2.45,2.45,0,0,1,.77.71c3.15-2,5.08-4.55,5.1-7.39,0-6.14-8.77-11.16-19.67-11.25"/><path class="cls-9" d="M177.28,27.09a27,27,0,0,0-9.42,1.53c5.27-.87,10.56-2.1,15.77-.21,6.23,2.25,8.41,7.39,5.6,13.32a1.4,1.4,0,0,1-.24.42,2.62,2.62,0,0,1,1.42.6c2.35-1.65,3.78-3.71,3.78-6,.06-5.27-7.54-9.61-16.91-9.67"/><path class="cls-9" d="M184.16,17.9a2.1,2.1,0,0,1-.28.33,5.35,5.35,0,0,1-1.63.84,6.78,6.78,0,0,1,2.35,2.75c1.21,2.46,1.28,4.94-.31,6.7a7.35,7.35,0,0,1,3.05,1.56c2.36-1.35,3.82-3.23,3.84-5.3,0-2.93-2.82-5.48-7-6.88"/><path class="cls-9" d="M183.06,8.14c2.42,1.56,4.13,4.85,2.66,7.57-2.17,4.07-8,4.52-13.23,4.19a21.63,21.63,0,0,0,4.76.57c6.5,0,11.76-2.87,11.79-6.52,0-2.46-2.41-4.64-6-5.81"/><path class="cls-9" d="M177.37,0c-4,0-7.42,1.32-8.85,3.26a16.62,16.62,0,0,1,8.23-2.18c3,.21,6.59,2.45,5.69,6a5.38,5.38,0,0,1-3,3.5c4.27-.54,7.42-2.66,7.47-5.2,0-2.93-4.26-5.39-9.57-5.42"/><path class="cls-9" d="M177.45,67.52A41.26,41.26,0,0,0,162.65,70c7.37-1.74,16-2,22.68-.21a15,15,0,0,1,10.82,18.46A8.4,8.4,0,0,1,199.4,91c2.84-2.34,4.49-5.21,4.54-8.26.09-8.29-11.81-15-26.49-15.17"/><path class="cls-10" d="M147,296.79c2.15,18.48,11.25,32.59,20.39,31.56s14.73-16.9,12.59-35.4-11.28-32.59-20.36-31.54S144.81,278.29,147,296.79"/><path class="cls-10" d="M138.1,271.75s10.49,11.46,24-.52-.21,18.16-.21,18.16-15.23,3.41-23.81-17.64"/><path class="cls-10" d="M133,276.31s10.82,16,25.57,3,.38,16.25.38,16.25-16.58,3.75-25.94-19.22"/><path class="cls-10" d="M131.84,285.55s12,13.18,27.61-.55S158,299.24,158,299.24s-16.3,10.53-26.17-13.7"/><path class="cls-11" d="M162.86,286.79c.64,5.36,3.29,9.46,5.92,9.15s4.28-4.89,3.68-10.28-3.29-9.47-6-9.16-4.28,4.88-3.64,10.28"/><path class="cls-12" d="M116.47,242c0-.27,5.9-36,40-36.78l.21,7.63c-30.11.69-37.74,29.45-37.8,29.69Z"/><path class="cls-13" d="M321,400.95c.36-1.73,2.57-4.14,1.3-10.11-1.65-7.87-9-18.2-16.09-21.3-14.3-20.2-39.2-33-67-31.33-31.72,2-57.67,22.11-67.12,48.91a72.1,72.1,0,0,0-7.91,37.43c2.4,39.06,35,68.88,73,66.56a66.07,66.07,0,0,0,31.05-9.89c32.82-6.74,56.59-35.87,54.56-69.31-.41-6.79.85-1.13-1.81-11"/><path class="cls-14" d="M189.29,439.85a57.65,57.65,0,0,0,4.49,8.52c31.53,45.15,59.48,35.62,64.69,37.74a64.19,64.19,0,0,0,9.79-4.88,40,40,0,0,0,3.94-1.1c-16.43-.7-44.31,7.33-82.9-40.28"/><path class="cls-14" d="M254.17,390.7c8.11,13.63,4.54,11.61,7.87,17.4,2,.07,5.7-1.22,6.68-3.38-5.27-9-10.4-21.88-20.24-25.05a21.37,21.37,0,0,0-26.37,12.5c2.94-4.77,23.16-16.83,32.05-1.47"/><path class="cls-14" d="M248.87,416c-2.56-4.8-6.36-10.7-12.28-10.88-4.65-.1-9.74,2.1-11.42,6.88-3.32,9.4,5.87,19.08,14.68,18.66,1.78-.06,4-.82,4.9-2.57s-.38-.39-1.8-.3a11.83,11.83,0,0,1-11.88-11.52c0-1.15-.21-4.83,2.27-6,8.3-6.75,14.1,6.44,15.53,5.69"/><path class="cls-14" d="M300.83,412.94c7.15-2.3,20.11-6,21.58-17.83.57-4.45-1.54-10.8-2.9-11.45,0,0,5.27,16.18-18.67,29.28"/><path class="cls-10" d="M252.73,279.52c1.95,16.85,10.3,29.74,18.59,28.79s13.49-15.43,11.5-32.31-10.29-29.78-18.58-28.77-13.46,15.38-11.51,32.28"/><path class="cls-10" d="M285.48,251.91s-6.9,12.39-21.44,4.58,4,16.07,4,16.07,14.25-.13,17.46-20.65"/><path class="cls-10" d="M291,254.9s-6.24,16.52-22.06,8S272,277.41,272,277.41s15.52-.16,19-22.51"/><path class="cls-10" d="M293.92,262.86s-7.9,14.27-24.63,5.27,4.22,12.37,4.22,12.37,16.73,5.94,20.41-17.64"/><path class="cls-11" d="M267.25,270.39c.57,4.88,3,8.65,5.39,8.37s3.92-4.49,3.34-9.38-3-8.63-5.39-8.37-3.92,4.49-3.34,9.38"/><path class="cls-1" d="M230.71,151.14s-32.31-33-8.14-26.85c-21.16-15.74-32.35,7.27-32.35,7.27s5.73-10.45-16.06-15.17c-.41,9.1-2.21,12.81-2.21,12.81s-3.47-9.91-14-10.75c6.33,14.64-2.65,10.24-2.65,10.24s-2.46-13.56-27.44-1.35c28.28,11.07,5.13,26.82,5.13,26.82Z"/><path class="cls-12" d="M283,230.12c-.08-.21-14.09-33.64-47.48-26.52l1.87,9c29.47-6.29,43.2,18.37,43.31,18.58Z"/></g></g></svg>