<svg xmlns="http://www.w3.org/2000/svg" viewBox="0 0 844.51 779.49"><defs><style>.cls-1{fill:#f9bdbd;}.cls-2{fill:#efb4b4;}.cls-3{fill:#fbd2d3;}.cls-4{fill:#acab93;}.cls-5{fill:#958e7e;}.cls-6{fill:none;}.cls-7{fill:#f19c9d;}.cls-8{fill:#f69fa1;}.cls-9{fill:#614c46;}.cls-10{fill:#010101;}.cls-11{fill:#fff;}.cls-12{fill:#c56f6f;}.cls-13{fill:#f3cccc;}</style></defs><title>Salvum</title><g id="Capa_2" data-name="Capa 2"><g id="Layer_1" data-name="Layer 1"><path class="cls-1" d="M309.81,147.46S237.06,129.72,268.52.08c33.56,29,93.75-12.49,140.93,81.75s-99.65,65.62-99.65,65.62"/><path class="cls-2" d="M349.56,57.82A47.21,47.21,0,0,1,369.44,74.9c-1.54,1.64-3.13,3.31-4.76,5-9.6,5-18.39,11.09-24.85,19.49-9.19,12,1.81,32.11,16.79,24.9a72.55,72.55,0,0,0,10.74-6.41,14.08,14.08,0,0,0,5.05-1.35c9-4.22,17-10.54,25.06-17,3.1-1.41,6.18-2.84,9.24-4.35,6.21,4.38,15,4.55,19.88-.58,29.7,79.36-76.14,69.12-104.81,65a17.44,17.44,0,0,0,1.11-3.51,47.8,47.8,0,0,0,.84-7.59c2-10.86-1.88-23.88-8.69-34.4-2.49-11-6.36-25.85-14.67-34.57-.14-.66-.28-1.33-.43-2,1.91-7.42,2.5-15.92,2.52-23.25,1.1.19,2.24.36,3.36.45,13.5,1.4,31.38-2.78,43.73,3.1"/><path class="cls-2" d="M274.07,4.46c-6.38,23-6.8,47.48.48,69.7A105.13,105.13,0,0,0,284.32,99c8.59,15.41,24.89,37.66,43.45,40.6a15,15,0,0,0,3.59.16,117.51,117.51,0,0,0,24.76,10.75c1.65.49,3.32.87,4.94,1.24-26.61,1-52.67-4.2-52.67-4.2S235.74,129.49,267.87,0a41.36,41.36,0,0,0,6.2,4.46"/><path class="cls-3" d="M309.63,120.16s-35.2-8.56-20-71.34c16.25,14.06,45.38-6,68.21,39.59s-48.22,31.75-48.22,31.75"/><polygon class="cls-1" points="553.2 716.4 598.88 707.65 598.6 638.98 534.12 651.97 553.2 716.4"/><path class="cls-2" d="M587.54,682.13c-5.72.74-11.65,1.9-17.56,2.74a72.53,72.53,0,0,1-7.23-.68c-1.71-.35-3.46-.69-5.24-1.1a28.1,28.1,0,0,1-10.75-5.41c-2.34-2-4.6-4.28-7-6.46L534.12,652l64.48-13,.28,68.66-5.25,1c-.66-8-.74-16-2.3-24a3.29,3.29,0,0,0-3.79-2.55"/><polygon class="cls-1" points="153.07 704.32 198.77 695.12 195.51 598.1 131.07 611.07 153.07 704.32"/><path class="cls-2" d="M197.38,695.39a87.47,87.47,0,0,1-7.6-12.16c-4-8.13-5.11-21.66-10.81-28.05-6.28-7-17-11.32-24.79-16.53s-14.31-11.51-20.87-18l-2.25-9.55,64.44-13,3.26,97Z"/><path class="cls-4" d="M294.85,682.73s1.3,26.61-3.26,27.67-14.51-9.25-14.51-9.25-2.45,13.36-7.21,14.32-22.21-21.23-22.21-21.23Z"/><path class="cls-5" d="M277.08,701.15s-.11.52-.24,1.33c-5.36-5.16-11.35-9.19-17.49-11.1l35.51-8.65s1.3,26.61-3.26,27.68-14.51-9.26-14.51-9.26"/><polyline class="cls-1" points="291.53 650.01 356.87 754.7 414.01 741.79 411.61 644.71"/><path class="cls-2" d="M398.22,717.27c-15.25,1.42-36.14-11.45-48-20.12-8.49-6.2-16.44-13.56-21.88-22.7-2.47-4.2-2.2-4.65-5.91-6.79a3.29,3.29,0,0,0-4.57,1.3,35.41,35.41,0,0,0-11.76,4.37L291.54,650l120.07-5.29,2.4,97.06-11.34,2.56a70.21,70.21,0,0,0-.65-24.55,3.29,3.29,0,0,0-3.8-2.52"/><polygon class="cls-2" points="291.68 683.36 247.96 694 211.73 602.98 276.18 590 291.68 683.36"/><path class="cls-1" d="M771.05,224.94s74.87-.86,73.43-134.27C805.25,111.38,756,57.41,688.76,138.58s82.29,86.36,82.29,86.36"/><path class="cls-2" d="M761.84,129.11a46.25,46.25,0,0,0-22,11.09c1.08,1.74,2.15,3.56,3.26,5.35,7.63,6.37,14.33,13.48,18.36,22.18,5.74,12.39-8.9,28-21,18.64a64.1,64.1,0,0,1-8.38-7.83,13.73,13.73,0,0,1-4.33-2.21c-7.28-5.54-13.27-12.71-19.18-20-2.46-1.88-5-3.78-7.46-5.68-6.62,2.61-14.76,1-18.09-4.53-45.05,64.09,54.21,76.28,81.4,78.4a15.47,15.47,0,0,1-.21-3.32,42.94,42.94,0,0,1,.92-6.87c.6-10,7.12-20.73,15.69-28.65,4.78-9.25,11.66-21.52,21.23-27.57.27-.56.55-1.1.85-1.67a86.15,86.15,0,0,1,2.91-21.05c-1.06,0-2.1-.1-3.17-.23-12.69-1.52-28.12-8.77-40.77-6.07"/><path class="cls-2" d="M837.46,93.59c.91,23.82-4.32,47.76-16.57,67.71a102.58,102.58,0,0,1-15.22,21.94c-11.91,13-32.93,30.89-51.64,29.49a15.15,15.15,0,0,1-3.5-.66A116.91,116.91,0,0,1,724,216.81a48.53,48.53,0,0,1-5.13.06C744.51,224,771.05,225,771.05,225s74.87-.87,73.43-134.28a39.34,39.34,0,0,1-7,2.91"/><path class="cls-3" d="M777.39,198.41s36.22-.41,35.54-65c-19,10-42.85-16.09-75.37,23.21s39.83,41.8,39.83,41.8"/><path class="cls-1" d="M669.52,511.37C661,626.67,519.67,710.24,353.82,698.06s-293.5-115.54-285-230.85S218.63,268.36,384.5,280.52,678,396.09,669.52,511.37"/><path class="cls-6" d="M271.59,287.27C158.83,310,75.29,379.37,68.82,467.21c-8.5,115.3,119.11,218.64,285,230.85S661,626.67,669.52,511.37s-119.14-218.63-285-230.85a418.86,418.86,0,0,0-112.85,6.72l-.07,0"/><path class="cls-3" d="M648.89,611.71c5.29,46.88-94.25,96.62-222.34,111.12S190.28,711.11,185,664.21s94.25-96.64,222.36-111.14,236.25,11.75,241.56,58.64"/><path class="cls-2" d="M567.82,338.19c0,4.2,0,8.35,0,12.34-.65,46.54-13.5,90.28-34.33,131.46-40.31,79.67-123.62,133.74-206,161.6-47.92,16.18-93.92,16.48-137.68,6.06,46.24,26,103,43.39,165.23,48,165.87,12.2,307.22-71.4,315.7-186.69,4.9-66.68-35.7-129.35-102.92-172.73"/><path class="cls-2" d="M233.24,275.17c2.05,124,123.85,222.5,272.07,220s266.66-105,264.58-229S646,43.73,497.8,46.18s-266.66,105-264.56,229"/><path class="cls-1" d="M247.75,265.67c2.08,124,123.91,222.48,272.1,220s266.67-105,264.58-229S660.56,34.21,512.36,36.7s-266.68,105-264.61,229"/><path class="cls-6" d="M247.75,265.67c2.08,124,123.91,222.48,272.1,220s266.67-105,264.58-229S660.56,34.21,512.36,36.7a319.28,319.28,0,0,0-57.83,6.2C334.52,67.05,246,158.32,247.75,265.67"/><path class="cls-7" d="M403,421.42c-7.25,48.69,37,93.13,98.88,99.26S619.77,492.3,627,443.61s-37-93.11-98.88-99.24-117.89,28.35-125.12,77"/><path class="cls-8" d="M394.15,426.5c-7.26,48.66,37,93.12,98.89,99.24s117.87-28.35,125.13-77-37-93.12-98.87-99.26S401.42,377.81,394.15,426.5"/><path class="cls-4" d="M598.82,706s.72,22.39-3.51,23.4-13.26-6-13.26-6-.94,13.45-5.39,14.34S553.2,716.4,553.2,716.4Z"/><path class="cls-5" d="M595.32,706.79l3.54-.8s.69,22.4-3.55,23.41c-3.09.72-8.59-2.7-11.42-4.63a69.26,69.26,0,0,0,11.43-18"/><path class="cls-4" d="M413.83,740.88s1.39,31.23-4.12,32.51-17.4-10.75-17.4-10.75-3.08,15.66-8.81,16.82-26.6-24.76-26.6-24.76Z"/><path class="cls-5" d="M406.32,742.71l7.51-1.83s1.39,31.23-4.12,32.51c-2,.48-5-.89-7.81-2.77,6-8.76,8.56-18.77,4.42-27.91"/><path class="cls-4" d="M198.7,693.93s1.52,26.89-2.75,27.88-14-10.45-14-10.45-9.41,13.16-13.85,14-15-21.09-15-21.09Z"/><path class="cls-5" d="M193.75,695l5-1.12s1.5,26.91-2.77,27.9a5.42,5.42,0,0,1-3.44-.92c5.32-8.52,6.74-18.08,1.25-25.86"/><path class="cls-3" d="M641.18,355.31c-.67,5.72,11.51,11.83,27.22,13.63s28.9-1.35,29.59-7.08S686.47,350,670.77,348.24s-28.92,1.37-29.59,7.07"/><path class="cls-9" d="M679.54,198.91c-.07-.36-9.22-47.21-54.24-46.88l.05,12.17c39.72-.29,50.87,35.15,51,35.47Z"/><path class="cls-9" d="M388.08,206.11c.21-.29,28.8-38.53,69.2-18.65l-4.39,9.06c-35.62-17.54-62,11.43-62.25,11.71Z"/><path class="cls-10" d="M572.91,306.7c-2.09,23.38,5.55,43.13,17.05,44.17s22.5-17.06,24.59-40.43-5.52-43.12-17-44.12-22.53,17-24.64,40.38"/><path class="cls-11" d="M595.11,298.48c-.62,6.77,1.57,12.51,4.93,12.82s6.55-5,7.16-11.73-1.62-12.54-4.94-12.85-6.54,5-7.15,11.76"/><path class="cls-10" d="M435.57,294.4c-2.08,23.33,5.53,43.11,17,44.13s22.53-17.07,24.63-40.39S471.7,255,460.18,254,437.69,271,435.57,294.4"/><path class="cls-11" d="M457.74,286.15c-.6,6.79,1.62,12.53,4.95,12.83s6.56-5,7.16-11.76-1.6-12.51-4.93-12.81-6.56,5-7.18,11.73"/><path class="cls-3" d="M344.19,325.85c-.67,5.72,11.53,11.81,27.2,13.63s28.93-1.38,29.59-7.11-11.54-11.8-27.18-13.62-28.95,1.38-29.61,7.1"/><path class="cls-1" d="M87.82,419.43a32.07,32.07,0,0,1-33.12-12.7c-8,1.55-16,1.38-23.56-1.68C15.4,398.66,4.12,385.86.91,370.8c-3-14.25,1.5-28.92,12.47-40.3,13.81-14.38,30.4-19.57,45.48-14.21l-1.75,3c-10.11-3.6-21.73.41-31.89,11-8,8.38-13.84,27.68-11.68,37.83,2.32,11,10.53,20.09,22.48,25a26,26,0,0,0,12.38,1.53c-5.77-16.64-5.05-40,7.54-54.19,5.22-5.86,14.15-11.85,23.52-11.13,4.22.32,10.28,2.17,14.85,9.25,9.27,14.34,7.34,31.92-5.17,47a65,65,0,0,1-21.33,16.56,18.53,18.53,0,0,0,6.48,4c5.84,2.14,12.56,1.25,19.45-2.52s12.1-10.49,15.9-15.93a15.45,15.45,0,0,0,.77-1.37,13,13,0,0,1,5.83-6.25l6,11.43-.08,0a3.31,3.31,0,0,1-.26.64,22.57,22.57,0,0,1-1.71,2.89c-4.6,6.58-11.07,14.79-20.24,19.83a42.3,42.3,0,0,1-12.13,4.52M76.17,342.35c-3.42.69-7.46,3.2-10.61,6.7-9,10.16-9.45,29.24-4.68,42.2a50.83,50.83,0,0,0,18.35-13.89c4.17-5.05,13-18.27,4.25-31.77-1.85-2.84-3.73-3.31-5-3.41a8,8,0,0,0-2.3.17"/><path class="cls-2" d="M47.43,356c8.14-15.64,23.17-27.48,40.23-20.82a30.14,30.14,0,0,1,6.8,3.66,1.3,1.3,0,0,1-.14-.26c-4.58-7.08-10.63-8.93-14.85-9.25-9.37-.73-18.31,5.27-23.52,11.13A41.88,41.88,0,0,0,47.43,356"/><path class="cls-2" d="M50.35,398.33a42.41,42.41,0,0,1-2-3.88.33.33,0,0,1,.06.19c-.35,0-.75,0-1.13.07a4.57,4.57,0,0,0-.2.47,3.73,3.73,0,0,1-3.74,3.62,35.52,35.52,0,0,1-4.61,0,24.13,24.13,0,0,1-15.59-4.9c-18.06-11-26-38.11-12.24-56.86,8.61-11.78,21.6-19.68,35.61-22.81-11.41.12-23,5.7-33.13,16.25-11,11.38-15.46,26-12.46,40.3C4.12,385.86,15.4,398.66,31.14,405c7.55,3.06,15.54,3.24,23.56,1.68a3.1,3.1,0,0,0,.31.33,2.43,2.43,0,0,1-.16-.48c-1.56-2.72-3.16-5.43-4.5-8.24"/><path class="cls-2" d="M74.61,387.09c4.94-5.41,8.82-12,10.32-19a39,39,0,0,1-5.7,9.22,53,53,0,0,1-18.35,13.89c.94,2,6,10.42,6.94,10.91.16,0,.15-.21.32-.24l.25,0c.43-.24.84-.45,1.27-.67-2.46-4.27,1.27-10.07,5-14.12"/><path class="cls-12" d="M574.69,422.62c2.91,14.44-3.73,28-14.82,30.19s-22.41-7.67-25.32-22.11,3.73-28,14.8-30.18,22.43,7.66,25.34,22.1"/><path class="cls-12" d="M472.24,434.88c-4.81,9.26-14.53,13.78-21.62,10.06s-9-14.24-4.14-23.53,14.54-13.77,21.66-10,9,14.23,4.1,23.52"/><path class="cls-9" d="M398.64,463.7c-41.48-14.12-29.11-62.48-29-63l6.06,1.42c-1.56,1.56-12.37,44.68,21.87,58.68Z"/><path class="cls-9" d="M382.83,406.55c-.68-.79-10.65-9.13-22.37.29l-2.76-5.11c13.72-7.45,23.88-1.25,27.31,3Z"/><path class="cls-13" d="M484.42,549.16c-43.23,43.71-100.31,75.29-156.93,94.43-47.92,16.18-93.89,16.46-137.68,6.06,46.24,26,103,43.39,165.23,48,123.41,9.07,233.23-34.86,284.86-105.43-20-30.68-114-44.31-155.48-43"/></g></g></svg>